<?xml version="1.0" encoding="UTF-8" standalone="no"?>
<svg
   xmlns:dc="http://purl.org/dc/elements/1.1/"
   xmlns:cc="http://creativecommons.org/ns#"
   xmlns:rdf="http://www.w3.org/1999/02/22-rdf-syntax-ns#"
   xmlns:svg="http://www.w3.org/2000/svg"
   xmlns="http://www.w3.org/2000/svg"
   xmlns:sodipodi="http://sodipodi.sourceforge.net/DTD/sodipodi-0.dtd"
   xmlns:inkscape="http://www.inkscape.org/namespaces/inkscape"
   width="36"
   height="36"
   viewBox="0 0 36 36"
   fill="none"
   version="1.1"
   id="svg6"
   sodipodi:docname="fast.svg"
   inkscape:version="0.92.5 (2060ec1f9f, 2020-04-08)">
  <metadata
     id="metadata12">
    <rdf:RDF>
      <cc:Work
         rdf:about="">
        <dc:format>image/svg+xml</dc:format>
        <dc:type
           rdf:resource="http://purl.org/dc/dcmitype/StillImage" />
      </cc:Work>
    </rdf:RDF>
  </metadata>
  <defs
     id="defs10" />
  <sodipodi:namedview
     pagecolor="#ffffff"
     bordercolor="#666666"
     borderopacity="1"
     objecttolerance="10"
     gridtolerance="10"
     guidetolerance="10"
     inkscape:pageopacity="0"
     inkscape:pageshadow="2"
     inkscape:window-width="1694"
     inkscape:window-height="1157"
     id="namedview8"
     showgrid="false"
     inkscape:zoom="6.5555556"
     inkscape:cx="18"
     inkscape:cy="18"
     inkscape:window-x="0"
     inkscape:window-y="26"
     inkscape:window-maximized="0"
     inkscape:current-layer="svg6" />
  <path
     d="M26.7192 7.39193C25.9889 5.00747 24.412 2.96038 22.2756 1.62359C20.1393 0.286796 17.5857 -0.250728 15.0802 0.10894C12.5746 0.468609 10.2838 1.70153 8.62509 3.5831C6.96638 5.46467 6.05013 7.86966 6.04328 10.3599V10.5083C4.20971 10.8745 2.57989 11.8977 1.47021 13.3792C0.360541 14.8607 -0.149818 16.6949 0.0382139 18.5257C0.226246 20.3565 1.09925 22.0532 2.48776 23.2866C3.87627 24.5199 5.68121 25.2018 7.5522 25.2H12.079C12.4791 25.2 12.8629 25.0436 13.1459 24.7653C13.4289 24.487 13.5879 24.1096 13.5879 23.716C13.5879 23.3224 13.4289 22.9449 13.1459 22.6666C12.8629 22.3883 12.4791 22.232 12.079 22.232H7.5522C6.35163 22.2413 5.19645 21.7812 4.3408 20.9529C3.48515 20.1246 2.99911 18.996 2.9896 17.8152C2.9801 16.6345 3.44791 15.4984 4.29012 14.6568C5.13233 13.8153 6.27995 13.3373 7.48052 13.328H7.66537C7.88596 13.3241 8.10344 13.2761 8.30451 13.1868C8.50558 13.0975 8.68602 12.9688 8.83478 12.8086C8.97894 12.6435 9.08442 12.4492 9.14375 12.2396C9.20307 12.0299 9.21478 11.81 9.17806 11.5954C8.96647 10.6115 8.96046 9.59551 9.16039 8.60924C9.36033 7.62297 9.76203 6.68697 10.3411 5.85808C10.9202 5.0292 11.6645 4.32474 12.529 3.78749C13.3934 3.25025 14.3598 2.89143 15.3696 2.73284C16.3794 2.57424 17.4114 2.61919 18.403 2.86493C19.3945 3.11068 20.3249 3.5521 21.1377 4.16238C21.9505 4.77266 22.6286 5.53907 23.1309 6.41505C23.6332 7.29102 23.9493 8.25828 24.0598 9.25807C24.0902 9.45918 24.1622 9.652 24.2715 9.82457C24.3808 9.99715 24.525 10.1458 24.6952 10.2613C24.8653 10.3768 25.0578 10.4567 25.2606 10.496C25.4634 10.5353 25.6723 10.5332 25.8743 10.4898C26.2996 10.4013 26.7334 10.3578 27.1681 10.3599C28.7689 10.3599 30.3041 10.9853 31.436 12.0986C32.5679 13.2118 33.2038 14.7216 33.2038 16.296C33.2038 17.8703 32.5679 19.3801 31.436 20.4934C30.3041 21.6066 28.7689 22.232 27.1681 22.232H24.1503C23.7501 22.232 23.3663 22.3883 23.0833 22.6666C22.8004 22.9449 22.6414 23.3224 22.6414 23.716C22.6414 24.1096 22.8004 24.487 23.0833 24.7653C23.3663 25.0436 23.7501 25.2 24.1503 25.2H27.1681C28.3571 25.171 29.5286 24.912 30.6157 24.4377C31.7028 23.9635 32.6844 23.2833 33.5042 22.436C34.3241 21.5887 34.9662 20.5908 35.394 19.4994C35.8217 18.4081 36.0267 17.2445 35.9972 16.0752C35.9677 14.9059 35.7044 13.7538 35.2222 12.6846C34.74 11.6154 34.0483 10.6501 33.1868 9.84377C32.3253 9.03745 31.3107 8.40592 30.201 7.98524C29.0913 7.56455 27.9082 7.36294 26.7192 7.39193Z"
     fill="#616161"
     id="path2"
     style="fill:#ff5400;fill-opacity:1" />
  <path
     d="M17.9996 16.2C17.6416 16.2 17.2983 16.3604 17.0451 16.646C16.792 16.9316 16.6498 17.319 16.6498 17.7229V30.7978L14.9052 28.8293C14.6519 28.5435 14.3084 28.383 13.9502 28.383C13.592 28.383 13.2485 28.5435 12.9952 28.8293C12.7419 29.1151 12.5996 29.5027 12.5996 29.9068C12.5996 30.311 12.7419 30.6986 12.9952 30.9843L17.0446 35.5533C17.17 35.6949 17.3188 35.8072 17.4827 35.8839C17.6466 35.9605 17.8222 36 17.9996 36C18.177 36 18.3526 35.9605 18.5165 35.8839C18.6804 35.8072 18.8292 35.6949 18.9546 35.5533L23.004 30.9843C23.2573 30.6986 23.3996 30.311 23.3996 29.9068C23.3996 29.5027 23.2573 29.1151 23.004 28.8293C22.7508 28.5435 22.4072 28.383 22.049 28.383C21.6909 28.383 21.3473 28.5435 21.0941 28.8293L19.3494 30.7978V17.7229C19.3494 17.319 19.2072 16.9316 18.9541 16.646C18.7009 16.3604 18.3576 16.2 17.9996 16.2Z"
     fill="#616161"
     id="path4"
     style="fill:#ff5400;fill-opacity:1" />
</svg>
