<?xml version="1.0" encoding="UTF-8" standalone="no"?>
<svg
   xmlns:dc="http://purl.org/dc/elements/1.1/"
   xmlns:cc="http://creativecommons.org/ns#"
   xmlns:rdf="http://www.w3.org/1999/02/22-rdf-syntax-ns#"
   xmlns:svg="http://www.w3.org/2000/svg"
   xmlns="http://www.w3.org/2000/svg"
   xmlns:sodipodi="http://sodipodi.sourceforge.net/DTD/sodipodi-0.dtd"
   xmlns:inkscape="http://www.inkscape.org/namespaces/inkscape"
   width="55"
   height="42"
   viewBox="0 0 55 42"
   fill="none"
   version="1.1"
   id="svg4"
   sodipodi:docname="support.svg"
   inkscape:version="0.92.5 (2060ec1f9f, 2020-04-08)">
  <metadata
     id="metadata10">
    <rdf:RDF>
      <cc:Work
         rdf:about="">
        <dc:format>image/svg+xml</dc:format>
        <dc:type
           rdf:resource="http://purl.org/dc/dcmitype/StillImage" />
      </cc:Work>
    </rdf:RDF>
  </metadata>
  <defs
     id="defs8" />
  <sodipodi:namedview
     pagecolor="#ffffff"
     bordercolor="#666666"
     borderopacity="1"
     objecttolerance="10"
     gridtolerance="10"
     guidetolerance="10"
     inkscape:pageopacity="0"
     inkscape:pageshadow="2"
     inkscape:window-width="1362"
     inkscape:window-height="725"
     id="namedview6"
     showgrid="false"
     inkscape:zoom="4.5454545"
     inkscape:cx="4.4"
     inkscape:cy="21"
     inkscape:window-x="0"
     inkscape:window-y="26"
     inkscape:window-maximized="0"
     inkscape:current-layer="svg4" />
  <path
     d="M8.19149 0C3.75342 0.314252 0.0724537 4.10379 0 8.05554V17.2618C0 21.3533 3.31563 25.3174 7.60638 25.3174H9.50798C9.85025 27.1581 9.86549 29.0253 9.37999 31.413C9.28058 31.8786 9.51296 32.3922 9.92852 32.6357C10.3441 32.8794 10.9124 32.8353 11.2816 32.5278C14.0132 30.2893 16.1273 28.6223 17.5532 26.4681C17.8879 30.8052 21.7592 34.4523 25.7447 34.5237H36.7703C38.1597 37.2825 40.5184 39.1116 43.7184 41.7341C44.0876 42.0415 44.6584 42.0879 45.0739 41.8443C45.4895 41.6007 45.7194 41.0849 45.62 40.6193C45.1345 38.2318 45.1497 36.3645 45.492 34.5237H47.3936C51.6844 34.5237 55 30.5596 55 26.4681V17.2618C54.6737 12.8918 50.8159 9.27627 46.8085 9.20636H37.4468V8.05554C37.1142 3.70307 33.2553 0.0703069 29.2553 0H8.19149ZM8.19149 2.30162H29.2553C32.3037 2.59665 35.0492 5.18987 35.1064 8.05554V9.20636H25.7447C21.3221 9.52729 17.6261 13.3256 17.5532 17.2618V23.0158C17.0924 23.0158 16.6472 23.315 16.4744 23.735C15.7123 25.6086 14.098 27.1069 12.013 28.8596C12.1244 27.1229 12.0695 25.468 11.6656 23.8789C11.5369 23.3892 11.0463 23.0156 10.5319 23.0158H7.60638C4.87586 23.0158 2.34043 20.0747 2.34043 17.2618V8.05554C2.63064 5.03694 5.27788 2.35691 8.19149 2.30162ZM25.7447 11.5079H46.8085C49.8755 11.7936 52.6033 14.3876 52.6596 17.2618V26.4681C52.6596 29.281 50.1241 32.2221 47.3936 32.2221H44.4681C43.9538 32.2219 43.4631 32.5955 43.3344 33.0852C42.9305 34.6743 42.8756 36.3292 42.987 38.066C40.902 36.3132 39.2877 34.8148 38.5256 32.9414C38.3528 32.5213 37.9076 32.2245 37.4468 32.2221H25.7447C22.7094 31.9188 19.9505 29.3173 19.8936 26.4681V17.2618C20.1937 14.2639 22.8308 11.5639 25.7447 11.5079ZM29.2553 20.1389C28.2859 20.1389 27.5 20.9117 27.5 21.8651C27.5 22.8184 28.2859 23.5912 29.2553 23.5912C30.2248 23.5912 31.0106 22.8184 31.0106 21.8651C31.0106 20.9117 30.2248 20.1389 29.2553 20.1389ZM36.2766 20.1389C35.3072 20.1389 34.5213 20.9117 34.5213 21.8651C34.5213 22.8184 35.3072 23.5912 36.2766 23.5912C37.246 23.5912 38.0319 22.8184 38.0319 21.8651C38.0319 20.9117 37.246 20.1389 36.2766 20.1389ZM43.2979 20.1389C42.3284 20.1389 41.5426 20.9117 41.5426 21.8651C41.5426 22.8184 42.3284 23.5912 43.2979 23.5912C44.2673 23.5912 45.0532 22.8184 45.0532 21.8651C45.0532 20.9117 44.2673 20.1389 43.2979 20.1389Z"
     fill="#616161"
     id="path2"
     style="fill:#ff5400;fill-opacity:1" />
</svg>
