<?xml version="1.0" encoding="UTF-8" standalone="no"?>
<svg
   xmlns:dc="http://purl.org/dc/elements/1.1/"
   xmlns:cc="http://creativecommons.org/ns#"
   xmlns:rdf="http://www.w3.org/1999/02/22-rdf-syntax-ns#"
   xmlns:svg="http://www.w3.org/2000/svg"
   xmlns="http://www.w3.org/2000/svg"
   xmlns:sodipodi="http://sodipodi.sourceforge.net/DTD/sodipodi-0.dtd"
   xmlns:inkscape="http://www.inkscape.org/namespaces/inkscape"
   width="1133"
   height="278.20001"
   viewBox="0 0 1133 278.20001"
   version="1.1"
   id="svg37"
   sodipodi:docname="trustpilot-logo.svg"
   inkscape:version="0.92.5 (2060ec1f9f, 2020-04-08)">
  <metadata
     id="metadata43">
    <rdf:RDF>
      <cc:Work
         rdf:about="">
        <dc:format>image/svg+xml</dc:format>
        <dc:type
           rdf:resource="http://purl.org/dc/dcmitype/StillImage" />
        <dc:title>trustpilot-wrap</dc:title>
      </cc:Work>
    </rdf:RDF>
  </metadata>
  <defs
     id="defs41" />
  <sodipodi:namedview
     pagecolor="#ffffff"
     bordercolor="#666666"
     borderopacity="1"
     objecttolerance="10"
     gridtolerance="10"
     guidetolerance="10"
     inkscape:pageopacity="0"
     inkscape:pageshadow="2"
     inkscape:window-width="1983"
     inkscape:window-height="1065"
     id="namedview39"
     showgrid="false"
     fit-margin-top="0"
     fit-margin-left="0"
     fit-margin-right="0"
     fit-margin-bottom="0"
     inkscape:zoom="0.88261253"
     inkscape:cx="419.1466"
     inkscape:cy="175.4943"
     inkscape:window-x="0"
     inkscape:window-y="26"
     inkscape:window-maximized="0"
     inkscape:current-layer="trustpilot-wrap" />
  <!-- Generator: Sketch 63.1 (92452) - https://sketch.com -->
  <title
     id="title2">trustpilot-wrap</title>
  <desc
     id="desc4">Created with Sketch.</desc>
  <g
     id="trustpilot-wrap"
     style="fill:none;fill-rule:evenodd;stroke:none;stroke-width:1">
    <g
       id="Trustpilot_brandmark_gr-blk_RGB"
       style="fill-rule:nonzero">
      <g
         id="Type"
         transform="translate(297,98)"
         style="fill:#5c5c5c;fill-opacity:1">
        <path
           d="M 0.7,0.6 H 115.4 V 22 H 70.3 V 142.3 H 45.5 V 22 H 0.6 V 0.6 Z m 109.8,39.1 h 21.2 v 19.8 h 0.4 c 0.7,-2.8 2,-5.5 3.9,-8.1 1.9,-2.6 4.2,-5.1 6.9,-7.2 2.7,-2.2 5.7,-3.9 9,-5.3 3.3,-1.3 6.7,-2 10.1,-2 2.6,0 4.5,0.1 5.5,0.2 1,0.1 2,0.3 3.1,0.4 v 21.8 c -1.6,-0.3 -3.2,-0.5 -4.9,-0.7 -1.7,-0.2 -3.3,-0.3 -4.9,-0.3 -3.8,0 -7.4,0.8 -10.8,2.3 -3.4,1.5 -6.3,3.8 -8.8,6.7 -2.5,3 -4.5,6.6 -6,11 -1.5,4.4 -2.2,9.4 -2.2,15.1 v 48.8 H 110.4 V 39.7 Z m 164,102.6 H 252.3 V 128 h -0.4 c -2.8,5.2 -6.9,9.3 -12.4,12.4 -5.5,3.1 -11.1,4.7 -16.8,4.7 -13.5,0 -23.3,-3.3 -29.3,-10 -6,-6.7 -9,-16.8 -9,-30.3 V 39.7 H 207 v 62.9 c 0,9 1.7,15.4 5.2,19.1 3.4,3.7 8.3,5.6 14.5,5.6 4.8,0 8.7,-0.7 11.9,-2.2 3.2,-1.5 5.8,-3.4 7.7,-5.9 2,-2.4 3.4,-5.4 4.3,-8.8 0.9,-3.4 1.3,-7.1 1.3,-11.1 V 39.8 h 22.6 z M 313,109.4 c 0.7,6.6 3.2,11.2 7.5,13.9 4.4,2.6 9.6,4 15.7,4 2.1,0 4.5,-0.2 7.2,-0.5 2.7,-0.3 5.3,-1 7.6,-1.9 2.4,-0.9 4.3,-2.3 5.9,-4.1 1.5,-1.8 2.2,-4.1 2.1,-7 -0.1,-2.9 -1.2,-5.3 -3.2,-7.1 -2,-1.9 -4.5,-3.3 -7.6,-4.5 -3.1,-1.1 -6.6,-2.1 -10.6,-2.9 -4,-0.8 -8,-1.7 -12.1,-2.6 -4.2,-0.9 -8.3,-2.1 -12.2,-3.4 -3.9,-1.3 -7.4,-3.1 -10.5,-5.4 -3.1,-2.2 -5.6,-5.1 -7.4,-8.6 -1.9,-3.5 -2.8,-7.8 -2.8,-13 0,-5.6 1.4,-10.2 4.1,-14 2.7,-3.8 6.2,-6.8 10.3,-9.1 4.2,-2.3 8.8,-3.9 13.9,-4.9 5.1,-0.9 10,-1.4 14.6,-1.4 5.3,0 10.4,0.6 15.2,1.7 4.8,1.1 9.2,2.9 13.1,5.5 3.9,2.5 7.1,5.8 9.7,9.8 2.6,4 4.2,8.9 4.9,14.6 h -23.6 c -1.1,-5.4 -3.5,-9.1 -7.4,-10.9 -3.9,-1.9 -8.4,-2.8 -13.4,-2.8 -1.6,0 -3.5,0.1 -5.7,0.4 -2.2,0.3 -4.2,0.8 -6.2,1.5 -1.9,0.7 -3.5,1.8 -4.9,3.2 -1.3,1.4 -2,3.2 -2,5.5 0,2.8 1,5 2.9,6.7 1.9,1.7 4.4,3.1 7.5,4.3 3.1,1.1 6.6,2.1 10.6,2.9 4,0.8 8.1,1.7 12.3,2.6 4.1,0.9 8.1,2.1 12.1,3.4 4,1.3 7.5,3.1 10.6,5.4 3.1,2.3 5.6,5.1 7.5,8.5 1.9,3.4 2.9,7.7 2.9,12.7 0,6.1 -1.4,11.2 -4.2,15.5 -2.8,4.2 -6.4,7.7 -10.8,10.3 -4.4,2.6 -9.4,4.6 -14.8,5.8 -5.4,1.2 -10.8,1.8 -16.1,1.8 -6.5,0 -12.5,-0.7 -18,-2.2 -5.5,-1.5 -10.3,-3.7 -14.3,-6.6 -4,-3 -7.2,-6.7 -9.5,-11.1 -2.3,-4.4 -3.5,-9.7 -3.7,-15.8 H 313 Z m 74.6,-69.7 h 17.1 V 8.9 h 22.6 v 30.8 h 20.4 v 16.9 h -20.4 v 54.8 c 0,2.4 0.1,4.4 0.3,6.2 0.2,1.7 0.7,3.2 1.4,4.4 0.7,1.2 1.8,2.1 3.3,2.7 1.5,0.6 3.4,0.9 6,0.9 1.6,0 3.2,0 4.8,-0.1 1.6,-0.1 3.2,-0.3 4.8,-0.7 v 17.5 c -2.5,0.3 -5,0.5 -7.3,0.8 -2.4,0.3 -4.8,0.4 -7.3,0.4 -6,0 -10.8,-0.6 -14.4,-1.7 -3.6,-1.1 -6.5,-2.8 -8.5,-5 -2.1,-2.2 -3.4,-4.9 -4.2,-8.2 -0.7,-3.3 -1.2,-7.1 -1.3,-11.3 V 56.8 H 387.8 V 39.7 Z m 76.1,0 h 21.4 v 13.9 h 0.4 c 3.2,-6 7.6,-10.2 13.3,-12.8 5.7,-2.6 11.8,-3.9 18.5,-3.9 8.1,0 15.1,1.4 21.1,4.3 6,2.8 11,6.7 15,11.7 4,5 6.9,10.8 8.9,17.4 2,6.6 3,13.7 3,21.2 0,6.9 -0.9,13.6 -2.7,20 -1.8,6.5 -4.5,12.2 -8.1,17.2 -3.6,5 -8.2,8.9 -13.8,11.9 -5.6,3 -12.1,4.5 -19.7,4.5 -3.3,0 -6.6,-0.3 -9.9,-0.9 -3.3,-0.6 -6.5,-1.6 -9.5,-2.9 -3,-1.3 -5.9,-3 -8.4,-5.1 -2.6,-2.1 -4.7,-4.5 -6.5,-7.2 h -0.4 v 51.2 h -22.6 z m 79,51.4 c 0,-4.6 -0.6,-9.1 -1.8,-13.5 -1.2,-4.4 -3,-8.2 -5.4,-11.6 -2.4,-3.4 -5.4,-6.1 -8.9,-8.1 -3.6,-2 -7.7,-3.1 -12.3,-3.1 -9.5,0 -16.7,3.3 -21.5,9.9 -4.8,6.6 -7.2,15.4 -7.2,26.4 0,5.2 0.6,10 1.9,14.4 1.3,4.4 3.1,8.2 5.7,11.4 2.5,3.2 5.5,5.7 9,7.5 3.5,1.9 7.6,2.8 12.2,2.8 5.2,0 9.5,-1.1 13.1,-3.2 3.6,-2.1 6.5,-4.9 8.8,-8.2 2.3,-3.4 4,-7.2 5,-11.5 0.9,-4.3 1.4,-8.7 1.4,-13.2 z M 582.6,0.6 h 22.6 V 22 h -22.6 z m 0,39.1 h 22.6 V 142.3 H 582.6 Z M 625.4,0.6 H 648 v 141.7 h -22.6 z m 91.9,144.5 c -8.2,0 -15.5,-1.4 -21.9,-4.1 -6.4,-2.7 -11.8,-6.5 -16.3,-11.2 -4.4,-4.8 -7.8,-10.5 -10.1,-17.1 -2.3,-6.6 -3.5,-13.9 -3.5,-21.8 0,-7.8 1.2,-15 3.5,-21.6 2.3,-6.6 5.7,-12.3 10.1,-17.1 4.4,-4.8 9.9,-8.5 16.3,-11.2 6.4,-2.7 13.7,-4.1 21.9,-4.1 8.2,0 15.5,1.4 21.9,4.1 6.4,2.7 11.8,6.5 16.3,11.2 4.4,4.8 7.8,10.5 10.1,17.1 2.3,6.6 3.5,13.8 3.5,21.6 0,7.9 -1.2,15.2 -3.5,21.8 -2.3,6.6 -5.7,12.3 -10.1,17.1 -4.4,4.8 -9.9,8.5 -16.3,11.2 -6.4,2.7 -13.7,4.1 -21.9,4.1 z m 0,-17.9 c 5,0 9.4,-1.1 13.1,-3.2 3.7,-2.1 6.7,-4.9 9.1,-8.3 2.4,-3.4 4.1,-7.3 5.3,-11.6 1.1,-4.3 1.7,-8.7 1.7,-13.2 0,-4.4 -0.6,-8.7 -1.7,-13.1 -1.1,-4.4 -2.9,-8.2 -5.3,-11.6 -2.4,-3.4 -5.4,-6.1 -9.1,-8.2 -3.7,-2.1 -8.1,-3.2 -13.1,-3.2 -5,0 -9.4,1.1 -13.1,3.2 -3.7,2.1 -6.7,4.9 -9.1,8.2 -2.4,3.4 -4.1,7.2 -5.3,11.6 -1.1,4.4 -1.7,8.7 -1.7,13.1 0,4.5 0.6,8.9 1.7,13.2 1.1,4.3 2.9,8.2 5.3,11.6 2.4,3.4 5.4,6.2 9.1,8.3 3.7,2.2 8.1,3.2 13.1,3.2 z m 58.4,-87.5 h 17.1 V 8.9 h 22.6 v 30.8 h 20.4 v 16.9 h -20.4 v 54.8 c 0,2.4 0.1,4.4 0.3,6.2 0.2,1.7 0.7,3.2 1.4,4.4 0.7,1.2 1.8,2.1 3.3,2.7 1.5,0.6 3.4,0.9 6,0.9 1.6,0 3.2,0 4.8,-0.1 1.6,-0.1 3.2,-0.3 4.8,-0.7 v 17.5 c -2.5,0.3 -5,0.5 -7.3,0.8 -2.4,0.3 -4.8,0.4 -7.3,0.4 -6,0 -10.8,-0.6 -14.4,-1.7 -3.6,-1.1 -6.5,-2.8 -8.5,-5 -2.1,-2.2 -3.4,-4.9 -4.2,-8.2 -0.7,-3.3 -1.2,-7.1 -1.3,-11.3 V 56.8 H 775.9 V 39.7 Z"
           id="Shape"
           inkscape:connector-curvature="0"
           style="fill:#5c5c5c;fill-opacity:1" />
      </g>
      <g
         id="Star">
        <polygon
           id="Path"
           points="51.8,258 135.7,197.1 219.5,258 187.5,159.5 271.3,98.6 167.7,98.6 135.7,0 103.6,98.6 0,98.5 83.9,159.5 "
           style="fill:#00b67a" />
        <polygon
           id="polygon9"
           points="194.7,181.8 187.5,159.5 135.7,197.1 "
           style="fill:#005128" />
      </g>
    </g>
    <g
       id="Trustpilot_ratings_4halfstar-RGB"
       transform="translate(0,319)"
       style="fill-rule:nonzero" />
  </g>
</svg>
