<?xml version="1.0" encoding="UTF-8" standalone="no"?>
<svg
   xmlns:dc="http://purl.org/dc/elements/1.1/"
   xmlns:cc="http://creativecommons.org/ns#"
   xmlns:rdf="http://www.w3.org/1999/02/22-rdf-syntax-ns#"
   xmlns:svg="http://www.w3.org/2000/svg"
   xmlns="http://www.w3.org/2000/svg"
   xmlns:sodipodi="http://sodipodi.sourceforge.net/DTD/sodipodi-0.dtd"
   xmlns:inkscape="http://www.inkscape.org/namespaces/inkscape"
   width="1131"
   height="212"
   viewBox="0 0 1131 212"
   version="1.1"
   id="svg37"
   sodipodi:docname="trustpilot-stars.svg"
   inkscape:version="0.92.5 (2060ec1f9f, 2020-04-08)">
  <metadata
     id="metadata43">
    <rdf:RDF>
      <cc:Work
         rdf:about="">
        <dc:format>image/svg+xml</dc:format>
        <dc:type
           rdf:resource="http://purl.org/dc/dcmitype/StillImage" />
        <dc:title>trustpilot-wrap</dc:title>
      </cc:Work>
    </rdf:RDF>
  </metadata>
  <defs
     id="defs41" />
  <sodipodi:namedview
     pagecolor="#ffffff"
     bordercolor="#666666"
     borderopacity="1"
     objecttolerance="10"
     gridtolerance="10"
     guidetolerance="10"
     inkscape:pageopacity="0"
     inkscape:pageshadow="2"
     inkscape:window-width="1751"
     inkscape:window-height="1084"
     id="namedview39"
     showgrid="false"
     fit-margin-top="0"
     fit-margin-left="0"
     fit-margin-right="0"
     fit-margin-bottom="0"
     inkscape:zoom="3.5304501"
     inkscape:cx="985.94558"
     inkscape:cy="111.06229"
     inkscape:window-x="655"
     inkscape:window-y="148"
     inkscape:window-maximized="0"
     inkscape:current-layer="Half" />
  <!-- Generator: Sketch 63.1 (92452) - https://sketch.com -->
  <title
     id="title2">trustpilot-wrap</title>
  <desc
     id="desc4">Created with Sketch.</desc>
  <g
     id="trustpilot-wrap"
     style="fill:none;fill-rule:evenodd;stroke:none;stroke-width:1"
     transform="translate(0,-319)">
    <g
       id="Trustpilot_ratings_4halfstar-RGB"
       transform="translate(0,319)"
       style="fill-rule:nonzero">
      <rect
         id="Rectangle-path"
         x="0"
         y="0"
         width="212"
         height="212"
         style="fill:#00b67a" />
      <rect
         id="rect14"
         x="230"
         y="0"
         width="212"
         height="212"
         style="fill:#00b67a" />
      <rect
         id="rect16"
         x="459"
         y="0"
         width="212"
         height="212"
         style="fill:#00b67a" />
      <rect
         id="rect18"
         x="689"
         y="0"
         width="212"
         height="212"
         style="fill:#00b67a" />
      <g
         id="Half"
         transform="translate(919)">
        <rect
           id="rect20"
           x="106"
           y="0"
           width="106"
           height="212"
           style="fill:#dcdce6" />
        <rect
           id="rect22"
           x="0"
           y="0"
           width="162.93326"
           height="212"
           style="fill:#00b67a;stroke-width:1.23980081" />
      </g>
      <path
         d="M 106,142.76101 138.15476,134.61635 151.58929,176 Z M 180,89.27044 H 123.39881 L 106,36 88.601191,89.27044 H 32 l 45.809524,33.01887 -17.39881,53.27044 45.809526,-33.01887 28.19047,-20.25157 L 180,89.27044 v 0 z"
         id="path25"
         inkscape:connector-curvature="0"
         style="fill:#ffffff" />
      <path
         d="M 336,142.76101 368.15476,134.61635 381.58929,176 Z M 410,89.27044 H 353.39881 L 336,36 318.60119,89.27044 H 262 l 45.80952,33.01887 -17.39881,53.27044 45.80953,-33.01887 28.19047,-20.25157 L 410,89.27044 v 0 z"
         id="path27"
         inkscape:connector-curvature="0"
         style="fill:#ffffff" />
      <path
         d="M 565,142.76101 597.15476,134.61635 610.58929,176 Z M 639,89.27044 H 582.39881 L 565,36 547.60119,89.27044 H 491 l 45.80952,33.01887 -17.39881,53.27044 45.80953,-33.01887 28.19047,-20.25157 L 639,89.27044 v 0 z"
         id="path29"
         inkscape:connector-curvature="0"
         style="fill:#ffffff" />
      <path
         d="M 795,142.76101 827.15476,134.61635 840.58929,176 Z M 869,89.27044 H 812.39881 L 795,36 777.60119,89.27044 H 721 l 45.80952,33.01887 -17.39881,53.27044 45.80953,-33.01887 28.19047,-20.25157 L 869,89.27044 v 0 z"
         id="path31"
         inkscape:connector-curvature="0"
         style="fill:#ffffff" />
      <path
         d="m 1025,142.76101 32.1548,-8.14466 L 1070.5893,176 Z m 74,-53.49057 h -56.6012 L 1025,36 1007.6012,89.27044 H 951 l 45.80952,33.01887 -17.39881,53.27044 45.80949,-33.01887 28.1905,-20.25157 L 1099,89.27044 v 0 z"
         id="path33"
         inkscape:connector-curvature="0"
         style="fill:#ffffff" />
    </g>
  </g>
</svg>
